<svg xmlns="http://www.w3.org/2000/svg" viewBox="0 0 32 32" id="Square-Upwork--Streamline-Font-Awesome" height="32" width="32">
  <desc>
    Square Upwork Streamline Icon: https://streamlinehq.com
  </desc>
<!--! Font Awesome Free 6.5.2 by @fontawesome - https://fontawesome.com License - https://fontawesome.com/license/free (Icons: CC BY 4.0, Fonts: SIL OFL 1.1, Code: MIT License) Copyright 2024 Fonticons, Inc.-->
  <path d="M4.239999999999999 0.32h23.519999999999996c2.163 0 3.92 1.757 3.92 3.92v23.519999999999996c0 2.163 -1.757 3.92 -3.92 3.92H4.239999999999999c-2.163 0 -3.92 -1.757 -3.92 -3.92V4.239999999999999c0 -2.163 1.757 -3.92 3.92 -3.92Zm15.043 16.953999999999997c0.46199999999999997 -3.703 1.813 -4.864999999999999 3.598 -4.864999999999999 1.771 0 3.143 1.414 3.143 3.479s-1.379 3.479 -3.143 3.479c-1.9529999999999998 0 -3.241 -1.505 -3.598 -2.093Zm-1.869 -2.9259999999999997c-0.574 -1.085 -1.001 -2.541 -1.3439999999999999 -3.892h-4.403v5.467c0 1.988 -0.9029999999999999 3.4579999999999997 -2.674 3.4579999999999997s-2.7859999999999996 -1.4629999999999999 -2.7859999999999996 -3.4509999999999996l0.020999999999999998 -5.467H3.694v5.467c0 1.596 0.5179999999999999 3.045 1.4629999999999999 4.074 0.973 1.064 2.296 1.6239999999999999 3.836 1.6239999999999999 3.0589999999999997 0 5.193999999999999 -2.3449999999999998 5.193999999999999 -5.705v-3.675c0.322 1.211 1.078 3.535 2.534 5.579l-1.351 7.735h2.576l0.896 -5.4879999999999995c0.294 0.245 0.609 0.46199999999999997 0.938 0.6579999999999999 0.861 0.5459999999999999 1.8479999999999999 0.8539999999999999 2.863 0.882h0.238c3.157 0 5.662999999999999 -2.4429999999999996 5.662999999999999 -5.733s-2.513 -5.754 -5.662999999999999 -5.754c-3.1779999999999995 0 -4.963 2.079 -5.467 4.207Z" fill="#000000" stroke-width="0.0714"></path>
</svg>